<svg id="visual" viewBox="0 0 900 900" width="900" height="900" xmlns="http://www.w3.org/2000/svg" xmlns:xlink="http://www.w3.org/1999/xlink" version="1.1"><rect x="0" y="0" width="900" height="900" fill="#ffffff"></rect><path d="M0 621L25 617C50 613 100 605 150 602.5C200 600 250 603 300 615.7C350 628.3 400 650.7 450 660.8C500 671 550 669 600 670.5C650 672 700 677 750 683.8C800 690.7 850 699.3 875 703.7L900 708L900 901L875 901C850 901 800 901 750 901C700 901 650 901 600 901C550 901 500 901 450 901C400 901 350 901 300 901C250 901 200 901 150 901C100 901 50 901 25 901L0 901Z" fill="#895fca"></path><path d="M0 717L25 715.2C50 713.3 100 709.7 150 716C200 722.3 250 738.7 300 732.3C350 726 400 697 450 697.3C500 697.7 550 727.3 600 737C650 746.7 700 736.3 750 725C800 713.7 850 701.3 875 695.2L900 689L900 901L875 901C850 901 800 901 750 901C700 901 650 901 600 901C550 901 500 901 450 901C400 901 350 901 300 901C250 901 200 901 150 901C100 901 50 901 25 901L0 901Z" fill="#7044b4"></path><path d="M0 807L25 797.2C50 787.3 100 767.7 150 764.7C200 761.7 250 775.3 300 772.7C350 770 400 751 450 746.7C500 742.3 550 752.7 600 761.3C650 770 700 777 750 774.8C800 772.7 850 761.3 875 755.7L900 750L900 901L875 901C850 901 800 901 750 901C700 901 650 901 600 901C550 901 500 901 450 901C400 901 350 901 300 901C250 901 200 901 150 901C100 901 50 901 25 901L0 901Z" fill="#56289e"></path><path d="M0 822L25 818.7C50 815.3 100 808.7 150 814.8C200 821 250 840 300 847.5C350 855 400 851 450 851.7C500 852.3 550 857.7 600 853C650 848.3 700 833.7 750 827.8C800 822 850 825 875 826.5L900 828L900 901L875 901C850 901 800 901 750 901C700 901 650 901 600 901C550 901 500 901 450 901C400 901 350 901 300 901C250 901 200 901 150 901C100 901 50 901 25 901L0 901Z" fill="#3b0788"></path></svg>