<svg id="visual" viewBox="0 0 675 900" width="675" height="900" xmlns="http://www.w3.org/2000/svg" xmlns:xlink="http://www.w3.org/1999/xlink" version="1.1"><rect x="0" y="0" width="675" height="900" fill="#ffffff"></rect><defs><linearGradient id="grad1_0" x1="0%" y1="100%" x2="100%" y2="0%"><stop offset="30%" stop-color="#230253" stop-opacity="1"></stop><stop offset="70%" stop-color="#230253" stop-opacity="1"></stop></linearGradient></defs><defs><linearGradient id="grad1_1" x1="0%" y1="100%" x2="100%" y2="0%"><stop offset="30%" stop-color="#230253" stop-opacity="1"></stop><stop offset="70%" stop-color="#ffffff" stop-opacity="1"></stop></linearGradient></defs><defs><linearGradient id="grad2_0" x1="0%" y1="100%" x2="100%" y2="0%"><stop offset="30%" stop-color="#230253" stop-opacity="1"></stop><stop offset="70%" stop-color="#230253" stop-opacity="1"></stop></linearGradient></defs><defs><linearGradient id="grad2_1" x1="0%" y1="100%" x2="100%" y2="0%"><stop offset="30%" stop-color="#ffffff" stop-opacity="1"></stop><stop offset="70%" stop-color="#230253" stop-opacity="1"></stop></linearGradient></defs><g transform="translate(675, 900)"><path d="M-365.6 0C-299.6 -31 -233.5 -61.9 -211.3 -122C-189.1 -182.1 -210.7 -271.2 -182.8 -316.6C-154.9 -362.1 -77.5 -363.9 0 -365.6L0 0Z" fill="#907aa6"></path><path d="M-182.8 0C-149.8 -15.5 -116.8 -31 -105.7 -61C-94.5 -91 -105.4 -135.6 -91.4 -158.3C-77.5 -181 -38.7 -181.9 0 -182.8L0 0Z" fill="#230253"></path></g><g transform="translate(0, 0)"><path d="M365.6 0C331.4 49.4 297.3 98.7 271.1 156.5C244.9 214.3 226.7 280.4 182.8 316.6C139 352.9 69.5 359.3 0 365.6L0 0Z" fill="#907aa6"></path><path d="M182.8 0C165.7 24.7 148.6 49.4 135.5 78.2C122.4 107.1 113.3 140.2 91.4 158.3C69.5 176.4 34.7 179.6 0 182.8L0 0Z" fill="#230253"></path></g></svg>