<svg id="visual" viewBox="0 0 900 450" width="900" height="450" xmlns="http://www.w3.org/2000/svg" xmlns:xlink="http://www.w3.org/1999/xlink" version="1.1"><rect x="0" y="0" width="900" height="450" fill="#ffffff"></rect><defs><linearGradient id="grad1_0" x1="50%" y1="100%" x2="100%" y2="0%"><stop offset="10%" stop-color="#230253" stop-opacity="1"></stop><stop offset="90%" stop-color="#230253" stop-opacity="1"></stop></linearGradient></defs><defs><linearGradient id="grad1_1" x1="50%" y1="100%" x2="100%" y2="0%"><stop offset="10%" stop-color="#230253" stop-opacity="1"></stop><stop offset="90%" stop-color="#ffffff" stop-opacity="1"></stop></linearGradient></defs><defs><linearGradient id="grad2_0" x1="0%" y1="100%" x2="50%" y2="0%"><stop offset="10%" stop-color="#230253" stop-opacity="1"></stop><stop offset="90%" stop-color="#230253" stop-opacity="1"></stop></linearGradient></defs><defs><linearGradient id="grad2_1" x1="0%" y1="100%" x2="50%" y2="0%"><stop offset="10%" stop-color="#ffffff" stop-opacity="1"></stop><stop offset="90%" stop-color="#230253" stop-opacity="1"></stop></linearGradient></defs><g transform="translate(900, 450)"><path d="M-225 0C-218 -38.5 -211 -77 -193.1 -111.5C-175.2 -146 -146.5 -176.6 -112.5 -194.9C-78.5 -213.1 -39.3 -219.1 0 -225L0 0Z" fill="#907aa6"></path><path d="M-112.5 0C-109 -19.2 -105.5 -38.5 -96.6 -55.8C-87.6 -73 -73.2 -88.3 -56.3 -97.4C-39.3 -106.6 -19.6 -109.5 0 -112.5L0 0Z" fill="#230253"></path></g><g transform="translate(0, 0)"><path d="M225 0C224.1 48 223.2 96.1 194.9 112.5C166.5 128.9 110.6 113.8 73.5 127.3C36.4 140.8 18.2 182.9 0 225L0 0Z" fill="#907aa6"></path><path d="M112.5 0C112.1 24 111.6 48 97.4 56.2C83.2 64.5 55.3 56.9 36.8 63.7C18.2 70.4 9.1 91.4 0 112.5L0 0Z" fill="#230253"></path></g></svg>